<svg id="power-plant-chimney-svgrepo-com" xmlns="http://www.w3.org/2000/svg" width="50" height="50" viewBox="0 0 512 639.248">
  <path id="Path_12" data-name="Path 12" d="M256,0C397.385,0,512,114.615,512,256S397.385,512,256,512,0,397.385,0,256,114.615,0,256,0Z" fill="#84dbff"/>
  <path id="Path_1" data-name="Path 1" d="M117.217,166.067l63.045-30.79,28.153,31.292,50.662,20.614-28.265,13.8A187.67,187.67,0,0,1,208.52,202.3C163.551,202.3,126.018,186.755,117.217,166.067Z" transform="translate(68.935 253.592) rotate(22)" fill="#84dbff"/>
  <path id="Path_2" data-name="Path 2" d="M390.823,424.8c-52.771-87.431-67.412-269.646-67.412-269.646H188.588S173.947,337.369,121.176,424.8Z" fill="#324a5e"/>
  <path id="Path_3" data-name="Path 3" d="M323.412,155.153H256V424.8H390.823C338.053,337.37,323.412,155.153,323.412,155.153Z" fill="#2b3b4e"/>
  <g id="Group_1" data-name="Group 1">
    <path id="Path_4" data-name="Path 4" d="M326.966,188.656H185.034c-1.579,12.922-3.749,28.891-6.6,46.575H333.571C330.716,217.547,328.545,201.578,326.966,188.656Z" fill="#ffd15d"/>
    <path id="Path_5" data-name="Path 5" d="M336.187,250.756H175.813c-2.608,14.869-5.685,30.617-9.276,46.575H345.465C341.873,281.372,338.8,265.625,336.187,250.756Z" fill="#ffd15d"/>
  </g>
  <g id="Group_2" data-name="Group 2">
    <path id="Path_6" data-name="Path 6" d="M326.966,188.656H256v46.575h77.571C330.716,217.547,328.545,201.578,326.966,188.656Z" fill="#f9b54c"/>
    <path id="Path_7" data-name="Path 7" d="M336.187,250.756H256v46.575h89.464C341.873,281.372,338.8,265.625,336.187,250.756Z" fill="#f9b54c"/>
  </g>
  <path id="Path_8" data-name="Path 8" d="M323.412,157.6H188.588A13.482,13.482,0,0,1,175.1,144.122h0a13.482,13.482,0,0,1,13.483-13.483H323.411a13.482,13.482,0,0,1,13.483,13.483h0A13.483,13.483,0,0,1,323.412,157.6Z" fill="#fc6f58"/>
  <path id="Path_9" data-name="Path 9" d="M323.412,130.641H256v26.965h67.412a13.482,13.482,0,1,0,0-26.965Z" fill="#f1543f"/>
  <path id="Path_10" data-name="Path 10" d="M383.224,433.045H128.776a14.135,14.135,0,0,1-14.136-14.136h0a14.135,14.135,0,0,1,14.136-14.136H383.224a14.135,14.135,0,0,1,14.136,14.136h0A14.135,14.135,0,0,1,383.224,433.045Z" fill="#2b3b4e"/>
  <path id="Path_11" data-name="Path 11" d="M383.224,404.773H256v28.272H383.224a14.136,14.136,0,0,0,0-28.272Z" fill="#212f3d"/>
  <path id="Path_13" data-name="Path 13" d="M310.838,355.411,164.292,525.726,15.312,345.48" transform="translate(86.522 113.523)" fill="#84dbff"/>
</svg>
