<svg style="object-fit:cover" id="my-svg" version="1" baseProfile="full" width="100%" height="100%" viewBox="0 0 1536 722" xmlns="http://www.w3.org/2000/svg"><rect width="1536" height="722" fill="#ffffff"/><defs><linearGradient id="linear-gradient" x1="0" x2="1" y1="0" y2="1"><stop offset="0%" stop-color="#00137060"/><stop offset="100%" stop-color="#00f0b460"/></linearGradient></defs><path transform="scale(1, 1)" style="transform-origin:center" d="M 0,722 V 0,361 C 101.18461538461537,289.94871794871796 202.36923076923074,218.89743589743588 283,225 C 363.63076923076926,231.10256410256412 423.70769230769235,314.3589743589744 501,307 C 578.2923076923076,299.6410256410256 672.7999999999997,201.66666666666663 767,232 C 861.2000000000003,262.33333333333337 955.0923076923079,420.974358974359 1042,468 C 1128.907692307692,515.025641025641 1208.8307692307692,450.4358974358974 1290,414 C 1371.1692307692308,377.5641025641026 1453.5846153846155,369.28205128205127 1536,361 C 1536,361 1536,722 1536,722 Z" stroke="none" stroke-width="0" fill="url(#linear-gradient)" class="transition-all duration-300 ease-in-out delay-150"/><defs><linearGradient id="linear-gradient" x1="0" x2="1" y1="0" y2="1"><stop offset="0%" stop-color="#00137070"/><stop offset="100%" stop-color="#00f0b470"/></linearGradient></defs><path transform="scale(1, 1)" style="transform-origin:center" d="M 0,722 V 0,541 C 70.8179487179487,562.5846153846154 141.6358974358974,584.1692307692308 221,550 C 300.3641025641026,515.8307692307692 388.2743589743591,425.90769230769234 483,417 C 577.7256410256409,408.09230769230766 679.2666666666665,480.2 766,495 C 852.7333333333335,509.8 924.6589743589745,467.29230769230776 1014,472 C 1103.3410256410255,476.70769230769224 1210.0974358974358,528.6307692307691 1300,548 C 1389.9025641025642,567.3692307692309 1462.951282051282,554.1846153846154 1536,541 C 1536,541 1536,722 1536,722 Z" stroke="none" stroke-width="0" fill="url(#linear-gradient)" class="transition-all duration-300 ease-in-out delay-150"/><defs><linearGradient id="linear-gradient" x1="0" x2="1" y1="0" y2="1"><stop offset="0%" stop-color="#00137080"/><stop offset="100%" stop-color="#00f0b480"/></linearGradient></defs><path transform="scale(1, 1)" d="M 0,722 V 0,812 C 85.7923076923077,833.4692307692308 171.5846153846154,854.9384615384615 249,860 C 326.4153846153846,865.0615384615385 395.45384615384614,853.7153846153846 479,851 C 562.5461538461539,848.2846153846154 660.5999999999999,854.2000000000002 759,866 C 857.4000000000001,877.7999999999998 956.146153846154,895.4846153846153 1036,859 C 1115.853846153846,822.5153846153847 1176.8153846153846,731.8615384615385 1257,715 C 1337.1846153846154,698.1384615384615 1436.5923076923077,755.0692307692307 1536,812 C 1536,812 1536,722 1536,722 Z" stroke="none" stroke-width="0" fill="url(#linear-gradient)" class="transition-all duration-300 ease-in-out delay-150" style="transform-origin: center center;"/><defs><linearGradient id="linear-gradient" x1="0" x2="1" y1="0" y2="1"><stop offset="0%" stop-color="#00137090"/><stop offset="100%" stop-color="#00f0b490"/></linearGradient></defs><path transform="scale(1, 1)" d="M 0,722 V 0,1218 C 69.77435897435893,1266.8230769230768 139.54871794871787,1315.6461538461538 240,1330 C 340.45128205128213,1344.3538461538462 471.5794871794873,1324.2384615384615 556,1271 C 640.4205128205127,1217.7615384615385 678.1333333333334,1131.3999999999999 745,1092 C 811.8666666666666,1052.6000000000001 907.8871794871795,1060.1615384615386 1009,1108 C 1110.1128205128205,1155.8384615384614 1216.3179487179489,1243.9538461538461 1305,1269 C 1393.6820512820511,1294.0461538461539 1464.8410256410257,1256.023076923077 1536,1218 C 1536,1218 1536,722 1536,722 Z" stroke="none" stroke-width="0" fill="url(#linear-gradient)" class="transition-all duration-300 ease-in-out delay-150" style="transform-origin: center center;"/><defs><linearGradient id="linear-gradient" x1="0" x2="1" y1="0" y2="1"><stop offset="0%" stop-color="#001370ff"/><stop offset="100%" stop-color="#00f0b4ff"/></linearGradient></defs><path transform="scale(1, 1)" d="M 0,722 V 0,1827 C 65.86666666666665,1783.4589743589745 131.7333333333333,1739.9179487179488 213,1773 C 294.2666666666667,1806.0820512820512 390.9333333333334,1915.7871794871794 478,1914 C 565.0666666666666,1912.2128205128206 642.5333333333332,1798.9333333333334 740,1774 C 837.4666666666668,1749.0666666666666 954.9333333333332,1812.479487179487 1058,1837 C 1161.0666666666668,1861.520512820513 1249.7333333333331,1847.148717948718 1327,1839 C 1404.2666666666669,1830.851282051282 1470.1333333333334,1828.925641025641 1536,1827 C 1536,1827 1536,722 1536,722 Z" stroke="none" stroke-width="0" fill="url(#linear-gradient)" class="transition-all duration-300 ease-in-out delay-150" style="transform-origin: center center;"/></svg>