<svg style="object-fit:cover" id="my-svg" version="1" baseProfile="full" width="100%" height="100%" viewBox="0 0 1536 722" xmlns="http://www.w3.org/2000/svg"><rect width="1536" height="722" fill="#ffffff"/><defs><linearGradient id="linear-gradient" x1="0" x2="1" y1="0" y2="1"><stop offset="0%" stop-color="#00137070"/><stop offset="100%" stop-color="#00f0b470"/></linearGradient></defs><path transform="scale(1, 1)" style="transform-origin:center" d="M 0,722 V 0,361 C 83.91458026509574,401.93372606774665 167.82916053019147,442.86745213549335 226,438 C 284.1708394698085,433.13254786450665 316.59793814432993,382.46391752577324 371,390 C 425.40206185567007,397.53608247422676 501.779086892489,463.2768777614138 579,425 C 656.220913107511,386.7231222385862 734.2857142857142,244.42857142857144 788,229 C 841.7142857142858,213.57142857142856 871.078055964654,325.0088365243005 932,383 C 992.921944035346,440.9911634756995 1085.40206185567,445.53608247422676 1152,403 C 1218.59793814433,360.46391752577324 1259.3136966126658,270.84683357879237 1319,256 C 1378.6863033873342,241.15316642120763 1457.343151693667,301.0765832106038 1536,361 C 1536,361 1536,722 1536,722 Z" stroke="none" stroke-width="0" fill="url(#linear-gradient)" class="transition-all duration-300 ease-in-out delay-150"/><defs><linearGradient id="linear-gradient" x1="0" x2="1" y1="0" y2="1"><stop offset="0%" stop-color="#00137080"/><stop offset="100%" stop-color="#00f0b480"/></linearGradient></defs><path transform="scale(1, 1)" style="transform-origin:center" d="M 0,722 V 0,541 C 75.63917525773195,616.2976804123712 151.2783505154639,691.5953608247422 219,667 C 286.7216494845361,642.4046391752578 346.52577319587635,517.9162371134021 409,499 C 471.47422680412365,480.0837628865979 536.6185567010309,566.7396907216495 602,603 C 667.3814432989691,639.2603092783505 733,625.125 781,638 C 829,650.875 859.381443298969,690.7603092783505 931,641 C 1002.618556701031,591.2396907216495 1115.4742268041236,451.8337628865979 1181,463 C 1246.5257731958764,474.1662371134021 1264.721649484536,635.9046391752578 1316,674 C 1367.278350515464,712.0953608247422 1451.639175257732,626.5476804123712 1536,541 C 1536,541 1536,722 1536,722 Z" stroke="none" stroke-width="0" fill="url(#linear-gradient)" class="transition-all duration-300 ease-in-out delay-150"/><defs><linearGradient id="linear-gradient" x1="0" x2="1" y1="0" y2="1"><stop offset="0%" stop-color="#00137090"/><stop offset="100%" stop-color="#00f0b490"/></linearGradient></defs><path transform="scale(1, 1)" d="M 0,722 V 0,812 C 74.53074374079529,815.7995213549337 149.06148748159058,819.5990427098675 219,791 C 288.9385125184094,762.4009572901325 354.28479381443293,701.4033505154639 415,724 C 475.71520618556707,746.5966494845361 531.7993372606775,852.7875552282769 592,860 C 652.2006627393225,867.2124447717231 716.5178571428573,775.4464285714287 768,783 C 819.4821428571427,790.5535714285713 858.1292341678939,897.4267304860089 930,897 C 1001.8707658321061,896.5732695139911 1106.965206185567,788.846649484536 1181,780 C 1255.034793814433,771.153350515464 1298.009941089838,861.1866715758468 1352,883 C 1405.990058910162,904.8133284241532 1470.9950294550808,858.4066642120765 1536,812 C 1536,812 1536,722 1536,722 Z" stroke="none" stroke-width="0" fill="url(#linear-gradient)" class="transition-all duration-300 ease-in-out delay-150" style="transform-origin: center center;"/><defs><linearGradient id="linear-gradient" x1="0" x2="1" y1="0" y2="1"><stop offset="0%" stop-color="#001370ff"/><stop offset="100%" stop-color="#00f0b4ff"/></linearGradient></defs><path transform="scale(1, 1)" d="M 0,722 V 0,1218 C 63.94771723122237,1192.4756995581738 127.89543446244474,1166.9513991163476 182,1170 C 236.10456553755526,1173.0486008836524 280.3659793814433,1204.6701030927836 354,1184 C 427.6340206185567,1163.3298969072164 530.6406480117819,1090.3681885125181 597,1115 C 663.3593519882181,1139.6318114874819 693.0714285714287,1261.8571428571427 745,1321 C 796.9285714285713,1380.1428571428573 871.0736377025036,1376.2032400589103 944,1329 C 1016.9263622974964,1281.7967599410897 1088.6340206185569,1191.3298969072164 1161,1139 C 1233.3659793814431,1086.6701030927836 1306.3902798232696,1072.477172312224 1369,1092 C 1431.6097201767304,1111.522827687776 1483.8048600883653,1164.761413843888 1536,1218 C 1536,1218 1536,722 1536,722 Z" stroke="none" stroke-width="0" fill="url(#linear-gradient)" class="transition-all duration-300 ease-in-out delay-150" style="transform-origin: center center;"/></svg>